<svg id="Capa_1" data-name="Capa 1" xmlns="http://www.w3.org/2000/svg" viewBox="0 0 612 612"><defs><style>.cls-1{fill:#9491a6;}</style></defs><title>search</title><path class="cls-1" d="M412.37,248.17a81.09,81.09,0,0,1,0,58.75,74,74,0,0,1-17.14,26A78.55,78.55,0,1,1,283.85,222.16a74,74,0,0,1,26-17.14,82.73,82.73,0,0,1,59.36,0A77.3,77.3,0,0,1,412.37,248.17ZM618,306a299.21,299.21,0,0,1-11,81.4,310.52,310.52,0,0,1-30.91,73.13A306.41,306.41,0,0,1,466.53,570.08,310.3,310.3,0,0,1,393.39,601a306.21,306.21,0,0,1-162.79,0,310.41,310.41,0,0,1-73.13-30.91A306.41,306.41,0,0,1,47.92,460.53,310.32,310.32,0,0,1,17,387.39,306.22,306.22,0,0,1,17,224.6a310.29,310.29,0,0,1,30.91-73.13A306.41,306.41,0,0,1,157.47,41.92,310.29,310.29,0,0,1,230.6,11,299.21,299.21,0,0,1,312,0q63,0,119,24.17t97.31,65.48Q569.65,131,593.83,187T618,306ZM480.3,277.85a145.16,145.16,0,0,0-10.1-52.94,139.85,139.85,0,0,0-77.72-77.72,143.81,143.81,0,0,0-105.88,0,134.76,134.76,0,0,0-46.82,30.91,137.61,137.61,0,0,0-27.85,39.47,141.42,141.42,0,0,0-12.55,45.29,144.63,144.63,0,0,0,2.75,46.82,135.4,135.4,0,0,0,18.05,43.45L159,414.32a35.91,35.91,0,0,0-11,26.31,33.94,33.94,0,0,0,11,25.7q10.4,11,26,11t26-11l63.65-63.65a143.2,143.2,0,0,0,41.92,14.08,141.21,141.21,0,0,0,43.45.61A140.38,140.38,0,0,0,439.3,377.6a134.75,134.75,0,0,0,30.91-46.82A145.17,145.17,0,0,0,480.3,277.85Z" transform="translate(-6)"/></svg>