<?xml version="1.0" encoding="UTF-8"?>
<svg width="155px" height="36px" viewBox="0 0 155 36" version="1.1" xmlns="http://www.w3.org/2000/svg" xmlns:xlink="http://www.w3.org/1999/xlink">
    <!-- Generator: sketchtool 41.2 (35397) - http://www.bohemiancoding.com/sketch -->
    <title>15D7B6AC-BF72-4155-BF46-366C777F6B5E</title>
    <desc>Created with sketchtool.</desc>
    <defs></defs>
    <g id="Symbols" stroke="none" stroke-width="1" fill="none" fill-rule="evenodd">
        <g id="Logo" fill="#FFFFFF">
            <g>
                <rect id="Rectangle-25" fill-opacity="0" x="0" y="0" width="156" height="36"></rect>
                <path d="M46.3769863,20.3213405 C47.0689557,20.8184702 47.9013527,21.1320275 48.6688947,21.1320275 C49.620284,21.1320275 50.214971,20.7104702 50.214971,19.9753557 C50.214971,18.2457069 45.9878565,18.9483939 45.9878565,16.1266534 C45.9878565,14.9265618 46.8743908,13.9754473 48.744742,13.9754473 C49.7607115,13.9754473 50.5609557,14.2997221 51.3716427,14.8509893 L50.8418107,15.856516 C50.1608336,15.3808214 49.4581466,15.0672641 48.6906046,15.0672641 C47.7499328,15.0672641 47.2635206,15.5319664 47.2635206,16.0727908 C47.2635206,17.8348672 51.4906351,17.2077527 51.4906351,19.8887908 C51.4906351,21.3807298 50.4419634,22.2024092 48.6150321,22.2024092 C47.5770779,22.2024092 46.6905435,21.8998443 45.8364366,21.3265924 L46.3769863,20.3213405 Z" id="Fill-1"></path>
                <polygon id="Fill-3" points="63.8912061 15.0996366 61.3181679 15.0996366 61.3181679 22.1267817 60.0425038 22.1267817 60.0425038 15.0996366 57.4694656 15.0996366 57.4694656 14.0402473 63.8912061 14.0402473"></polygon>
                <path d="M70.767371,18.0835145 C70.767371,19.7051634 71.6863328,21.0781099 73.4159817,21.0781099 C75.1459053,21.0781099 76.0645924,19.7051634 76.0645924,18.0835145 C76.0645924,16.4618656 75.1459053,15.0889191 73.4159817,15.0889191 C71.6863328,15.0889191 70.767371,16.4618656 70.767371,18.0835145 M77.3512489,18.0835145 C77.3512489,20.4078504 75.9565924,22.1916366 73.4159817,22.1916366 C70.8756458,22.1916366 69.4809893,20.4078504 69.4809893,18.0835145 C69.4809893,15.7591786 70.8756458,13.9753924 73.4159817,13.9753924 C75.9565924,13.9753924 77.3512489,15.7591786 77.3512489,18.0835145" id="Fill-5"></path>
                <path d="M85.265313,15.0996366 L85.265313,17.8996672 L87.3195115,17.8996672 C88.1301985,17.8996672 88.7463206,17.1645527 88.7463206,16.5267206 C88.7463206,15.6077588 88.0870534,15.0996366 87.2978015,15.0996366 L85.265313,15.0996366 Z M87.4599389,14.0402473 C88.865313,14.0402473 90.0219847,14.9374992 90.0219847,16.5267206 C90.0219847,17.6833924 89.2112977,18.4512092 88.1843359,18.7971939 L90.5193893,22.1267817 L89.0923053,22.1916366 L86.8979542,18.9159115 L85.265313,18.9159115 L85.265313,22.1267817 L83.9896489,22.1267817 L83.9896489,14.0402473 L87.4599389,14.0402473 Z" id="Fill-7"></path>
                <polygon id="Fill-9" points="97.2876366 13.9753099 99.3091328 17.9537221 99.3525527 17.9537221 101.363331 13.9753099 102.854995 14.0401649 99.9686748 19.0241038 99.9686748 22.1266992 98.6930107 22.1266992 98.6930107 19.0458137 95.8064153 14.0401649"></polygon>
                <polygon id="Fill-11" points="111.756311 20.0510382 109.421258 16.7428855 109.378113 16.7536031 109.378113 22.1376641 108.102174 22.1376641 108.102174 14.0401374 108.880708 14.0401374 111.983579 18.5373893 115.096892 14.0401374 115.875151 14.0401374 115.875151 22.1376641 114.599487 22.1376641 114.599487 16.7536031 114.556342 16.7428855 112.210296 20.0510382"></polygon>
                <path d="M127.400125,19.4564611 L125.940614,15.9644611 L125.897469,15.9644611 L124.44895,19.4564611 L127.400125,19.4564611 Z M123.34614,22.1916366 L122.038049,22.1267817 L125.562476,14.0402473 L126.275881,14.0402473 L129.811026,22.1267817 L128.513652,22.1916366 L127.778537,20.4727053 L124.081255,20.4727053 L123.34614,22.1916366 Z" id="Fill-13"></path>
                <polygon id="Fill-15" points="141.73582 14.4185771 137.48727 21.0673099 141.778965 21.0673099 141.778965 22.1266992 135.595209 22.1266992 135.595209 21.7699969 139.865469 15.0995542 135.790049 15.0995542 135.790049 14.0401649 141.73582 14.0401649"></polygon>
                <polygon id="Fill-17" points="149.736504 15.0996366 149.736504 17.4239725 153.574214 17.4239725 153.574214 18.4402168 149.736504 18.4402168 149.736504 21.0671176 154.028198 21.0671176 154.028198 22.1267817 148.460565 22.1267817 148.460565 14.0402473 154.028198 14.0402473 154.028198 15.0996366"></polygon>
                <path d="M17.8138992,0.274946565 C13.2927389,0.274946565 9.16043359,1.96887023 6.01579237,4.75433588 L7.1897771,5.85879389 C10.0365252,3.38248855 13.7530443,1.88120611 17.8138992,1.88120611 C26.7509679,1.88120611 34.0215939,9.15183206 34.0215939,18.0889008 C34.0215939,27.0256947 26.7509679,34.2965954 17.8138992,34.2965954 C8.87683053,34.2965954 1.60620458,27.0256947 1.60620458,18.0889008 C1.60620458,14.056626 3.08660153,10.3642901 5.53185344,7.52523664 L4.39304427,6.38807634 C1.65869313,9.52035115 -5.49618321e-05,13.614458 -5.49618321e-05,18.0889008 C-5.49618321e-05,27.9114046 7.99139542,35.902855 17.8138992,35.902855 C27.6366779,35.902855 35.6278534,27.9114046 35.6278534,18.0889008 C35.6278534,8.26612214 27.6366779,0.274946565 17.8138992,0.274946565" id="Fill-19"></path>
                <path d="M19.036855,10.7722718 L19.036855,12.4032641 C21.6989313,12.9256763 23.7138321,15.2761191 23.7138321,18.0887908 C23.7138321,21.2839969 21.1141374,23.8836916 17.9189313,23.8836916 C14.7234504,23.8836916 12.1240305,21.2839969 12.1240305,18.0887908 C12.1240305,15.3250351 14.0694046,13.0083939 16.6625038,12.4326687 L16.6625038,10.7967298 C13.1781985,11.3952641 10.517771,14.4363023 10.517771,18.0887908 C10.517771,22.1697069 13.8380153,25.4899511 17.9189313,25.4899511 C21.9998473,25.4899511 25.3200916,22.1697069 25.3200916,18.0887908 C25.3200916,14.3879359 22.589313,11.3128214 19.036855,10.7722718" id="Fill-22"></path>
                <path d="M17.9041466,7.08598168 C23.9122992,7.08598168 28.800055,11.9737374 28.800055,17.9818901 C28.800055,20.6615542 27.8258565,23.1164244 26.2154748,25.0161802 L27.3617038,26.1442718 C29.2562382,23.9521191 30.4060397,21.0996 30.4060397,17.9818901 C30.4060397,11.0883023 24.7977344,5.47972214 17.9041466,5.47972214 C11.4104061,5.47972214 6.05932214,10.4567908 5.45996336,16.7963634 L7.07391756,16.7963634 C7.66695573,11.3441496 12.2969405,7.08598168 17.9041466,7.08598168" id="Fill-24"></path>
                <path d="M24.5873679,26.5779206 C22.7403756,28.0170962 20.4215359,28.8775237 17.904284,28.8775237 C12.2959786,28.8775237 7.66544427,24.6179817 7.07378015,19.1646687 L5.45982595,19.1646687 C6.05781069,25.5053405 11.4097191,30.4837832 17.904284,30.4837832 C20.8425435,30.4837832 23.5450168,29.4623176 25.681658,27.7593252 L24.5873679,26.5779206 Z" id="Fill-26"></path>
            </g>
        </g>
    </g>
</svg>